<?xml version="1.0" encoding="UTF-8"?>
<svg width="128" height="128" viewBox="0 0 128 128" fill="none" xmlns="http://www.w3.org/2000/svg">
  <defs>
    <linearGradient id="g" x1="0" y1="0" x2="1" y2="1">
      <stop offset="0%" stop-color="#818CF8"/>
      <stop offset="100%" stop-color="#06B6D4"/>
    </linearGradient>
  </defs>
  <rect width="128" height="128" rx="28" fill="#0B1220"/>
  <path d="M64 22c18 0 34 16 34 34 0 15-9 28-22 32-4 1-6-1-4-5 3-6 5-12 5-19 0-14-11-24-25-24-10 0-19 5-23 14-3 7-3 16 0 23 1 2 0 4-2 5-2 1-4 0-5-2-8-18 1-40 20-47 6-2 12-3 18-3z" fill="url(#g)"/>
  <circle cx="100" cy="28" r="8" fill="#F59E0B"/>
</svg>
